<svg width="48" height="48" viewBox="0 0 48 48" fill="none" xmlns="http://www.w3.org/2000/svg">
<rect x="-0.000488281" width="47.9998" height="47.9998" rx="23.9999" fill="#FBF4F2"/>
<path d="M18.9595 12.0001H29.0394C32.8794 12.0001 35.9994 15.1201 35.9994 18.9601V29.04C35.9994 30.8859 35.2661 32.6562 33.9609 33.9615C32.6556 35.2667 30.8853 36 29.0394 36H18.9595C15.1195 36 11.9995 32.88 11.9995 29.04V18.9601C11.9995 17.1142 12.7328 15.3439 14.038 14.0387C15.3433 12.7334 17.1136 12.0001 18.9595 12.0001ZM18.7195 14.4001C17.5738 14.4001 16.4749 14.8553 15.6648 15.6654C14.8546 16.4756 14.3995 17.5744 14.3995 18.7201V29.28C14.3995 31.668 16.3315 33.6 18.7195 33.6H29.2794C30.4252 33.6 31.524 33.1449 32.3341 32.3347C33.1443 31.5246 33.5994 30.4258 33.5994 29.28V18.7201C33.5994 16.3321 31.6674 14.4001 29.2794 14.4001H18.7195ZM30.2994 16.2001C30.6973 16.2001 31.0788 16.3581 31.3601 16.6394C31.6414 16.9207 31.7994 17.3023 31.7994 17.7001C31.7994 18.0979 31.6414 18.4794 31.3601 18.7608C31.0788 19.0421 30.6973 19.2001 30.2994 19.2001C29.9016 19.2001 29.5201 19.0421 29.2388 18.7608C28.9575 18.4794 28.7994 18.0979 28.7994 17.7001C28.7994 17.3023 28.9575 16.9207 29.2388 16.6394C29.5201 16.3581 29.9016 16.2001 30.2994 16.2001ZM23.9995 18.0001C25.5908 18.0001 27.1169 18.6322 28.2421 19.7574C29.3673 20.8827 29.9994 22.4088 29.9994 24.0001C29.9994 25.5914 29.3673 27.1175 28.2421 28.2427C27.1169 29.3679 25.5908 30 23.9995 30C22.4082 30 20.882 29.3679 19.7568 28.2427C18.6316 27.1175 17.9995 25.5914 17.9995 24.0001C17.9995 22.4088 18.6316 20.8827 19.7568 19.7574C20.882 18.6322 22.4082 18.0001 23.9995 18.0001ZM23.9995 20.4001C23.0447 20.4001 22.129 20.7794 21.4539 21.4545C20.7788 22.1296 20.3995 23.0453 20.3995 24.0001C20.3995 24.9548 20.7788 25.8705 21.4539 26.5456C22.129 27.2208 23.0447 27.6001 23.9995 27.6001C24.9542 27.6001 25.8699 27.2208 26.545 26.5456C27.2202 25.8705 27.5994 24.9548 27.5994 24.0001C27.5994 23.0453 27.2202 22.1296 26.545 21.4545C25.8699 20.7794 24.9542 20.4001 23.9995 20.4001Z" fill="#213050"/>
</svg>
