<svg width="187" height="221" viewBox="0 0 187 221" fill="none" xmlns="http://www.w3.org/2000/svg">
<g clip-path="url(#clip0_1_91)">
<mask id="mask0_1_91" style="mask-type:luminance" maskUnits="userSpaceOnUse" x="0" y="0" width="187" height="221">
<path d="M187 0H0V221H187V0Z" fill="white"/>
</mask>
<g mask="url(#mask0_1_91)">
<path d="M150.504 138.792C152.136 136.481 151.917 132.886 149.684 131.038H149.709C148.259 129.847 146.42 129.24 144.6 128.87C143.543 128.726 142.461 128.82 141.41 128.595C140.472 128.432 140.297 127.349 140.247 126.553C140.047 124.937 138.971 123.528 137.551 122.77C136.85 122.388 136.082 122.131 135.287 121.999C135.675 121.103 136.007 120.183 136.207 119.231C136.557 117.145 136.006 114.933 134.843 113.186C132.71 110.323 128.401 109.722 125.131 110.587C121.115 111.927 118.307 115.403 116.362 119.017C116.049 119.593 115.743 120.176 115.449 120.765C114.861 121.93 114.449 123.17 113.923 124.354C113.685 124.855 113.429 125.344 113.148 125.82C112.835 126.284 112.528 126.904 111.891 126.904C110.871 126.904 110.315 125.789 109.689 125.137C107.731 122.713 104.567 122.444 101.947 123.941C100.496 124.749 99.3449 126.033 98.6443 127.542C98.1814 128.52 97.7939 129.541 97.1185 130.399C96.5306 131.019 95.5861 130.925 94.8104 131.019C93.1844 131.131 91.5523 130.931 89.9263 131.006C87.3432 131.157 84.7354 131.25 82.1961 131.777C80.3761 132.146 78.6373 133.249 77.8681 135.009C76.4295 138.022 78.4807 140.502 81.6204 140.427C82.7275 140.578 83.8781 140.509 84.9852 140.534C87.5245 140.622 90.0699 140.446 92.6026 140.621C95.4668 140.621 98.3319 140.797 101.196 140.809C104.029 140.809 106.862 140.922 109.695 140.953C112.629 140.972 115.562 140.947 118.495 140.991C123.955 140.934 129.415 140.978 134.881 140.89C137.564 140.859 140.253 140.859 142.93 140.69C144.243 140.646 145.563 140.533 146.87 140.364C148.177 140.183 149.666 139.913 150.504 138.792Z" fill="#B7E8FF"/>
<path d="M80.8139 140.828C87.9436 141.348 95.1111 141.072 102.247 141.529V141.535C103.448 141.88 104.636 140.477 103.11 139.945C99.3823 139.644 95.6178 139.6 91.8777 139.55C89.3697 139.581 86.8621 139.45 84.3541 139.349C81.6712 139.243 76.5363 139.538 78.2625 135.353C80.02 132.366 83.9345 132.541 86.9679 132.209C90.0135 131.877 93.0907 132.691 96.0929 131.902C98.9072 131.275 99.0387 128.106 100.496 126.133C101.803 124.329 104.304 123.609 106.418 124.216C107.957 124.693 108.751 126.196 109.971 127.129C112.247 128.82 114.186 127.335 115.105 125.043C116.369 122.732 117.181 120.214 118.257 117.815C120.553 113.624 123.88 110.054 129.077 111.138C134.149 112.052 136.27 117.144 134.237 121.635C133.793 123.064 135.975 123.064 136.488 121.091C137.07 119.08 137.201 116.719 136.426 114.733C134.631 110.317 129.384 108.651 124.981 109.528C122.823 109.966 120.978 111.325 119.44 112.854C118.095 114.382 116.919 116.105 116.031 117.94C115.193 120.076 114.374 122.224 113.323 124.266C112.898 124.868 112.723 125.895 111.991 126.183C110.502 125.532 109.808 123.784 108.289 123.12C104.586 121.153 99.4886 122.969 97.8439 126.834C97.2998 127.749 97.1497 128.889 96.4742 129.709C94.8482 131.162 92.3528 130.424 90.364 130.474C85.6295 130.612 77.5679 130.236 75.9671 135.892C75.3792 139.306 77.8495 140.552 80.8139 140.828Z" fill="#004449"/>
<path d="M87.7679 58.4387C87.8345 56.9417 86.8781 55.3233 85.2063 55.5245L85.2133 55.53C83.9297 55.6614 82.9551 56.6526 82.3244 57.7069C81.5123 58.9463 81.2607 60.4322 80.9365 61.8528C80.859 62.2755 80.5934 63.0993 80.9998 63.5014C81.1267 63.6347 81.3239 63.6878 81.4998 63.6365C81.8932 63.5155 82.1044 63.0987 82.2581 62.6332C83.1476 62.705 85.2304 61.6398 86.1082 61.3274C86.6123 61.9241 87.4693 61.3365 87.5468 60.6101C87.6059 59.8864 87.748 59.1694 87.7679 58.4387Z" fill="#FFA97F"/>
<path d="M105.6 96.8114C105.944 94.3558 106.257 91.7722 105.561 89.3363L105.553 89.3308C104.449 86.3537 101.065 86.5217 98.9242 88.2852C98.212 84.048 94.4231 84.876 92.2492 87.5369C91.7282 84.5691 88.3216 84.3289 86.2508 85.9175C86.4317 84.4667 86.5684 83.0167 86.7174 81.5644C86.7594 80.7228 88.6647 59.4174 87.0041 60.0027C86.5995 60.358 81.4405 61.8951 81.4405 61.8951C81.4405 61.8951 78.9345 84.7607 78.9584 85.184C79.0522 86.9992 79.1392 88.8098 79.2575 90.6215C79.4091 93.1373 79.8708 95.6138 80.2462 98.103C80.5283 99.9095 82.1564 106.525 82.5575 108.061C82.9677 109.488 83.5414 110.866 84.1438 112.22C84.3649 112.738 84.5797 113.258 84.8069 113.775C85.0686 114.313 85.2774 114.966 85.625 115.484C85.5573 115.583 85.5237 115.701 85.5329 115.852C85.5867 116.179 85.8642 116.43 86.1892 116.49C87.7715 116.589 101.042 114.676 101.355 114.611C101.406 115.047 103.001 113.009 103.226 112.166C103.613 109.571 104.036 106.959 104.384 104.357C104.757 101.834 105.207 99.3246 105.6 96.8114Z" fill="#FFA97F"/>
<path d="M85.8522 100.003C94.0887 98.7936 101.751 104.504 102.951 112.746C104.152 120.988 98.4395 128.662 90.2031 129.872C81.9667 131.081 74.3045 125.371 73.1039 117.128C71.9033 108.886 77.6158 101.212 85.8522 100.003Z" fill="#FFA97F"/>
<path d="M84.128 90.9254C83.6319 94.1183 81.5621 104.182 86.4066 104.527L86.4208 104.538C87.7167 104.575 88.7786 103.616 89.3887 102.552C89.7682 101.901 90.3181 101.029 89.8019 100.308C89.5612 100.001 89.1846 100.018 88.8832 100.208C88.1801 100.767 88.1134 101.872 87.2676 102.319C83.6485 103.698 85.2888 94.2044 85.5465 92.4135C86.0444 89.7963 86.5319 83.8515 90.5403 86.7945C91.6386 87.4305 91.0743 88.4182 91.9371 88.6968C92.8456 88.8101 93.1123 87.6892 92.8474 87.0002C92.5098 85.3788 90.7602 84.2686 89.2127 84.0212C85.4758 83.5951 84.6164 88.1133 84.128 90.9254Z" fill="#004449"/>
<path d="M89.2741 99.0517C88.9505 101.694 88.7864 105.211 92.0717 105.881C93.6137 106.395 97.6822 103.108 96.6095 101.563C95.5266 100.469 94.8039 103.278 93.0912 103.763C92.3211 104.078 91.309 103.468 90.9902 102.755C90.4954 100.574 91.0757 98.3061 91.3729 96.1358C91.8445 93.9466 92.6218 89.1241 94.0076 87.5663C95.1882 86.6839 97.1478 86.8901 98.0158 88.1171C98.2706 88.4783 98.1426 88.9905 98.4862 89.3071C98.8808 89.6732 99.4293 89.3969 99.6332 88.9745C100.523 84.8379 93.836 83.4336 92.1194 87.2802C90.4851 91.0388 89.8519 94.9859 89.2741 99.0517Z" fill="#004449"/>
<path d="M96.1767 99.9652C96.0055 102.003 96.5123 104.049 98.8414 104.365L98.8359 104.372C99.8246 104.473 100.805 104.083 101.562 103.465C102.201 102.986 102.948 102.256 102.501 101.397C102.122 100.795 101.466 101.018 101.084 101.485C100.428 102.144 99.403 102.618 98.5156 102.128C97.6576 101.665 97.8342 100.577 97.8414 99.759C97.9094 98.1413 98.1507 96.5426 98.5604 94.9701C99.0044 93.0694 99.8429 88.5352 102.309 88.534C103.098 88.5639 104.291 89.0279 104.658 89.7652C104.813 90.1349 105.182 90.3652 105.556 90.114C105.93 89.8568 105.988 89.3482 105.866 88.942C105.525 87.467 103.48 86.4129 102.047 86.6044C98.2803 87.0117 97.3461 93.0157 96.6388 96.0178C96.3532 97.3127 96.2369 98.6402 96.1767 99.9652Z" fill="#004449"/>
<path d="M91.2329 89.8876C91.1412 90.2997 90.8961 90.9183 91.3923 91.1555L91.3978 91.1481C91.8648 91.2692 92.0549 90.7101 92.1096 90.3478C92.2391 89.8032 92.3082 89.2359 92.3022 88.6735C92.3058 87.5275 91.9156 86.3256 90.8885 85.704C90.6542 85.5294 90.3731 85.4187 90.1123 85.2796C89.888 85.1733 89.6475 85.044 89.3909 85.0627C89.1112 85.0976 89.0481 85.4867 89.2724 85.6373C89.4712 85.7855 89.6372 85.9697 89.8199 86.1391C90.3813 86.6073 91.1359 87.0094 91.2806 87.7855C91.4695 88.473 91.3726 89.1963 91.2329 89.8876Z" fill="#004449"/>
<path d="M87.9755 101.621C87.7855 102.01 87.9237 102.654 88.4334 102.681L88.4395 102.68C88.8713 102.692 89.1278 102.282 89.2996 101.94C89.5868 101.436 89.7989 100.898 89.9912 100.351C90.4849 99.0503 90.706 97.4865 90.8144 96.0591C90.8878 95.1751 91.13 94.3163 91.268 93.4417C91.3803 92.8242 91.493 92.2061 91.554 91.5834C91.5627 91.4684 91.4763 91.3542 91.3586 91.3715C91.1975 91.3951 91.1583 91.5594 91.1205 91.6914C90.8884 92.2698 90.7708 92.8061 90.5617 93.4128C90.1963 94.4222 89.9137 95.4761 89.6935 96.5274C89.2754 98.0003 88.9818 99.4545 88.3548 100.882C88.3599 100.875 88.3641 100.862 88.3641 100.862C88.2438 101.12 88.1092 101.368 87.9755 101.621Z" fill="#004449"/>
<path d="M97.3851 92.8103C97.2695 93.1882 97.1903 93.7315 97.6317 93.939L97.6257 93.9399C97.8293 94.0364 98.0489 93.9349 98.2149 93.8157C98.4721 93.626 98.5441 93.2985 98.6221 93.0086C98.7342 92.6063 98.8536 92.209 98.9656 91.8066C99.3476 90.5225 99.6928 88.8961 99.1218 87.6253C98.8374 86.9329 98.3423 86.3153 97.5893 86.1409C97.3721 86.084 97.1021 85.9656 96.9041 86.1277C96.4565 86.5731 97.6549 86.9795 97.8137 87.4181C98.0316 87.8292 98.1213 88.2278 98.22 88.688C98.3202 89.6796 97.961 90.6438 97.6991 91.581C97.5816 91.9908 97.4768 92.3982 97.3851 92.8103Z" fill="#004449"/>
<path d="M92.9723 104.2C92.8266 104.588 92.8776 105.113 93.3028 105.297L93.3102 105.302C93.7267 105.469 94.0858 105.112 94.4081 104.894C95.3397 104.125 96.0346 103.124 96.5766 101.981C97.1626 100.534 97.4375 98.9878 97.5657 97.4373C97.6891 96.3304 97.8049 95.2189 97.9418 94.1166C97.9859 93.7686 98.0566 93.4289 98.0688 93.079C98.0622 92.9913 98.074 92.8947 98.0073 92.8285C97.7561 92.6248 97.4233 93.813 97.322 94.0302C96.6043 95.8315 96.3153 97.7538 95.7691 99.6059C95.4808 100.882 94.9458 102.119 94.0495 103.086C93.9041 103.259 93.7646 103.432 93.588 103.565C93.3346 103.735 93.1092 103.838 92.9723 104.2Z" fill="#004449"/>
<path d="M111.827 47.2658C112.265 46.1008 111.621 44.9733 110.652 44.3154L110.633 44.322C109.951 43.8019 109.188 43.3821 108.363 43.1692C106.581 42.7182 104.729 42.6495 102.922 42.305C102.209 42.1546 101.495 41.9165 100.914 41.4655C100.482 41.1587 100.607 40.7203 100.783 40.3006C101.277 39.173 101.84 38.0642 102.127 36.8554C102.521 35.2394 102.784 33.4606 102.058 31.8946C101.064 29.7898 98.8998 28.3742 96.6235 28.0735C94.5844 27.8041 92.4708 28.5558 90.8135 29.7333C90.6196 29.8776 90.3258 30.1096 90.0005 30.3851C90.0382 29.9906 90.0504 29.6269 90.0378 29.3388C89.9501 26.783 88.6248 24.3967 86.7796 22.6743C84.8222 20.9958 82.4517 19.5298 79.8187 19.3855C77.9176 19.2978 75.941 19.5924 74.2837 20.5756C72.5263 21.678 71.0191 23.3382 70.3184 25.3174C69.8868 26.5888 69.862 27.9484 69.8122 29.2762C69.731 31.0178 69.4807 32.9092 68.6803 34.4938C67.5046 36.5295 66.0095 36.1788 64.0143 35.8595C63.02 35.6905 62.0009 35.6718 61 35.7782C59.9618 35.916 59.0174 36.5299 58.3857 37.3503C57.6039 38.321 57.2351 39.5302 56.6347 40.6013C56.2907 41.2526 55.7466 41.7975 55.0213 41.9917C53.3514 42.3801 51.9314 42.6678 50.7058 44.0022C49.5865 45.1171 49.1796 47.0342 50.1679 48.362C50.862 49.3266 52.0438 49.7273 53.1822 49.8337C53.9076 49.8902 54.6395 49.8902 55.3714 49.8776C56.3158 49.9528 57.1722 49.9719 57.6915 49.9906C59.5367 50.0032 61.3753 49.8215 63.2204 49.7651C64.9592 49.7399 66.7037 49.7086 68.4425 49.6834C73.9588 49.6456 79.4746 49.5083 84.9909 49.6334C90.951 49.7525 96.9111 49.7898 102.871 49.8337C103.465 49.8276 104.066 49.8276 104.66 49.7777C105.498 49.7837 106.342 49.759 107.181 49.7212C109.019 49.7399 111.164 49.195 111.827 47.2658Z" fill="#B7E8FF"/>
<path d="M57.1041 50.442C59.4555 50.5862 61.7948 50.7487 64.1588 50.7674V50.7548C67.3796 50.6105 70.6008 50.6297 73.8217 50.6736C75.0412 50.5797 76.4234 50.9677 77.5553 50.4541C78.331 49.8276 77.3614 48.9008 76.6048 49.0011C75.5102 49.045 74.4156 49.0011 73.321 49.0011C71.0447 48.9885 68.7618 48.932 66.4789 48.9885C63.5518 49.1954 60.6191 48.995 57.6984 48.8008C55.7783 48.594 53.7579 49.0011 51.9006 48.3937C50.4433 47.8988 51.1002 46.0135 51.7943 45.1114C52.6637 44.0217 54.1023 43.658 55.3344 43.1257C58.8303 41.7414 58.2676 37.1751 60.9006 36.6928C62.9145 36.3548 64.9531 37.1564 66.9605 36.5864C68.5991 36.2731 69.8503 34.9391 70.1692 33.3167C70.5444 31.9636 70.4941 30.5545 70.6256 29.1702C70.9822 26.8777 71.3136 24.2719 73.0399 22.5617C78.7249 17.5067 86.8113 21.9226 88.7562 28.4871C89.0312 29.145 89.1692 29.8467 89.3757 30.5232C89.626 31.1932 90.6889 31.3497 90.9453 30.6045C91.1957 29.0259 90.2946 27.4413 89.7631 25.9883C87.1675 20.6077 80.282 17.0374 74.5531 19.4676C69.3245 21.2717 68.6368 26.6896 68.4056 31.5191C68.1744 34.1123 67.1549 35.2776 64.4655 35.1334C61.9826 34.814 58.7049 34.5129 57.3605 37.1438C55.5405 41.1087 55.7969 41.0023 51.7882 42.7186C49.3366 43.7836 47.6542 47.8927 50.4186 49.5212C52.426 50.7487 54.8715 50.2977 57.1041 50.442Z" fill="#004449"/>
<path d="M151.584 49.6376C155.006 48.136 158.446 46.6634 161.906 45.2513L161.91 45.2762C163.63 44.5872 165.372 43.9583 167.045 43.1626C167.607 42.8967 168.15 42.5898 168.723 42.36C169.003 42.9766 168.933 43.6256 168.224 44.2228C166.864 45.4723 165.17 46.2588 163.577 47.1691C161.771 48.1804 159.874 49.0032 157.993 49.8483C155.425 51.0096 152.863 52.1636 150.263 53.2344C144.34 55.672 138.458 58.2051 132.568 60.7327C130.627 65.0714 128.559 69.3595 126.509 73.6388C124.664 77.3313 122.661 80.939 120.625 84.5332C118.086 89.0167 117.093 89.3203 112.077 90.1261C107.44 90.6233 110.356 85.4706 111.093 83.1994C112.031 80.7405 112.929 78.269 113.819 75.7919C114.92 73.0182 115.822 70.1472 116.74 67.2928C116.022 67.5753 115.305 67.8574 114.588 68.1399C110.333 69.9155 106.141 71.821 101.915 73.6618C98.2528 75.2114 94.609 76.796 90.9364 78.3151C88.0753 79.4181 85.2156 80.527 82.3518 81.6115C80.3011 82.374 78.3924 83.1157 76.4071 83.894C76.1466 84.0143 75.8793 84.136 75.618 84.2502C74.7919 84.6119 73.9483 84.938 73.1035 85.2581C70.9452 86.1947 68.8007 87.1803 66.6227 88.0689C63.184 89.4146 59.8548 91.2501 56.166 91.7914C56.0359 91.8105 55.8998 91.8305 55.7697 91.8496C53.015 92.1209 49.9221 91.8917 47.5885 90.28C46.1611 89.465 44.8306 88.402 43.5551 87.2418C41.1141 84.8931 38.8774 82.3432 36.7329 79.7298C34.498 77.0599 32.2022 74.4494 29.9285 71.8167C29.2909 71.0438 28.3194 70.0163 27.4362 68.8999C27.3865 68.8628 27.3351 68.8138 27.2896 68.7634C26.9985 68.3696 26.7074 67.9762 26.4099 67.5834C25.7804 66.7333 25.1461 65.8081 25.0518 64.7277C24.9296 63.8476 25.4017 63.007 26.1442 62.5501C28.2017 61.268 30.9223 62.5443 32.9985 63.2136C35.505 64.1045 37.8615 65.3522 40.2339 66.5348C43.8974 68.2931 47.553 70.0845 51.2703 71.7336C52.278 72.1424 53.2746 72.6473 54.3629 72.785C55.8244 72.8803 57.2287 72.364 58.5585 71.8148C66.4685 68.3581 74.4435 65.0436 82.3929 61.6825C90.5238 58.3513 98.5666 54.8063 106.628 51.3019C113.623 48.4604 120.559 45.5699 127.635 42.9375C131.345 41.4569 135.041 39.9659 138.772 38.5457C141.001 37.7001 143.158 36.6689 145.436 35.9488C145.857 35.8049 146.28 35.6671 146.709 35.5342C146.724 35.6335 146.764 35.7346 146.843 35.8433C147.173 37.237 147.781 38.5456 148.339 39.8615C148.727 40.6583 149.083 41.4976 149.657 42.185C150.399 42.9804 151.494 43.4208 152.585 43.362C154.022 43.2902 155.383 42.6922 156.695 42.1517C157.841 41.6861 158.988 41.2273 160.081 40.662C161.145 40.0692 162.231 39.4927 163.219 38.772C163.573 38.5112 164.01 38.1689 164.054 37.6943C165.457 38.6458 166.74 39.7668 167.854 41.0327C166.726 41.4513 165.665 42.0625 164.529 42.4696C160.402 44.0808 156.294 45.7397 152.253 47.5472C148.965 48.9721 145.645 50.3069 142.319 51.6488C140.747 52.3095 139.189 52.9874 137.616 53.6481C136.878 53.9145 136.447 54.9516 137.432 55.1994C138.024 55.3591 138.587 55.0549 139.115 54.8194C139.895 54.49 140.675 54.1605 141.448 53.8255C144.802 52.3721 148.233 51.1035 151.584 49.6376Z" fill="#D5FFBF"/>
<path d="M111.867 88.4607C111.655 88.9159 111.602 89.5498 112.06 89.8749C112.391 90.1047 112.845 89.9243 113.084 89.6552C113.464 89.1755 113.575 88.5515 113.817 87.9971C114.25 86.8512 114.699 85.7159 115.127 84.5709C115.989 82.1531 116.925 79.7687 117.821 77.3652C118.92 74.3177 119.918 71.2663 120.928 68.1751C120.915 68.2152 120.902 68.2549 120.889 68.295C120.88 68.3153 120.876 68.3351 120.867 68.3554C121.458 66.5976 122.054 64.8269 122.718 63.0902C123.168 61.8344 123.759 60.6017 123.997 59.2822C124.039 58.3519 122.971 58.2303 122.594 58.982C122.395 59.3971 122.251 59.8419 122.086 60.2714C120.15 65.0046 118.662 69.8943 117.007 74.7255C115.721 78.3636 114.303 81.9576 112.971 85.5771C112.592 86.5375 112.233 87.5021 111.867 88.4607Z" fill="#FFFBED"/>
<path d="M43.2112 73.924C43.5126 74.1264 43.8669 74.2579 44.234 74.261L44.24 74.2601C45.3469 74.2622 44.9189 73.1483 44.3613 72.7048C43.638 72.1658 42.8077 71.7624 42.0367 71.287C38.3813 69.242 34.726 67.1975 31.1105 65.0773C30.093 64.5179 29.102 63.9234 28.0761 63.3906C27.7137 63.2033 27.3471 63.0289 26.9797 62.8489C26.7687 62.7469 26.5537 62.6586 26.3192 62.6992C25.7101 62.8141 25.711 63.5162 26.0705 63.9001C26.3536 64.1939 26.7293 64.3854 27.0811 64.587C30.9678 66.8319 34.7767 69.1959 38.7191 71.344C39.7513 71.9201 40.789 72.4893 41.8063 73.0927C42.2768 73.3717 42.7467 73.6441 43.2112 73.924Z" fill="#FFFBED"/>
<path d="M55.9835 88.025C55.6928 88.3713 55.7835 88.7374 56.2032 88.8403L56.2096 88.8394C57.6668 89.2516 61.559 86.9416 63.3381 86.4402C68.6946 84.2882 73.9958 82.018 79.3738 79.9261C91.1341 75.0452 103.139 70.7605 114.726 65.4685C115.989 64.8911 115.297 63.6138 114.139 64.0872C111.11 65.4613 107.981 66.6414 104.889 67.8918C92.6167 72.9874 80.1764 77.6706 67.9206 82.7953C65.2145 83.9197 62.2671 85.0795 59.5223 86.1968C58.3584 86.7975 56.827 86.959 55.9835 88.025Z" fill="#FFFBED"/>
<path d="M167.834 41.0357C167.856 41.0579 167.894 41.1027 167.894 41.1027L167.893 41.0967C168.083 41.3154 168.291 41.5692 168.408 41.8495C168.532 42.0085 168.625 42.1716 168.7 42.3379C168.127 42.5677 167.583 42.8751 167.022 43.1409C165.349 43.9365 163.601 44.5659 161.887 45.2539C158.427 46.6658 154.987 48.1322 151.565 49.6397C148.221 51.1106 144.783 52.374 141.429 53.8273C140.65 54.1631 139.876 54.4917 139.096 54.8211C138.568 55.0566 138.012 55.3662 137.413 55.201C136.423 54.9606 136.86 53.9226 137.598 53.6499C139.17 52.9892 140.728 52.3114 142.3 51.6507C145.627 50.315 148.947 48.9803 152.234 47.5494C156.276 45.7421 160.383 44.083 164.51 42.4719C165.645 42.0589 166.707 41.4542 167.834 41.0357Z" fill="#FFFBED"/>
<path d="M149.992 42.2172C149.448 41.5633 149.106 40.7719 148.742 40.0156L148.736 40.0165C148.206 38.7659 147.634 37.5278 147.321 36.2071C147.248 36.0976 147.21 36.0024 147.196 35.9096C149.79 35.0987 152.482 34.482 155.208 34.7966C158.216 35.1331 161.111 36.258 163.617 37.965C163.575 38.414 163.161 38.7406 162.824 38.9863C161.893 39.6732 160.866 40.2163 159.854 40.7761C158.82 41.3136 157.733 41.7519 156.652 42.1887C155.412 42.6999 154.128 43.2675 152.766 43.3344C151.73 43.3852 150.697 42.9743 149.992 42.2172Z" fill="#B7E8FF"/>
<path d="M28.6863 95.9611C28.6853 95.9547 28.6779 95.9492 28.6779 95.9492C28.6853 95.9547 28.6863 95.9611 28.6863 95.9611Z" fill="#0FFF80"/>
<path d="M28.7078 95.9751C28.7087 95.9811 28.7087 95.9811 28.7087 95.9811L28.7309 95.959C28.8913 96.1062 29.1195 96.2816 29.3793 96.2434C29.4227 96.237 29.4596 96.2316 29.5011 96.2128C29.6893 96.204 29.8906 96.1495 30.0661 96.0539C30.2657 95.9487 30.4547 95.813 30.6534 95.7018C31.6769 95.0898 32.7012 94.4839 33.7417 93.9011C39.06 91.0011 44.2453 87.7533 49.5536 84.8294C49.9879 84.5567 50.5058 84.2911 50.7042 83.8319C50.727 83.7715 50.7373 83.7129 50.7486 83.6608C51.0488 82.8132 50.4183 81.824 50.0158 81.2314C49.8505 81.009 49.6622 80.7584 49.4722 80.4954C49.4248 80.4326 49.378 80.3697 49.3298 80.3008C49.1879 80.1066 49.0511 79.9051 48.9295 79.7206C48.8238 79.6032 48.6335 79.2963 48.4125 79.0377C48.0866 78.5796 47.5992 77.9674 46.8364 78.244C46.4674 78.2727 46.1059 78.5219 45.7746 78.7224C45.4724 78.9059 45.1776 79.0949 44.8685 79.2732C43.8272 79.85 42.7775 80.4149 41.7523 81.0148C39.5955 82.2679 37.4587 83.4799 35.2967 84.7843C32.4122 86.4669 29.5162 88.1129 26.6725 89.8588C26.6434 89.8758 26.6212 89.8979 26.593 89.9209C26.4092 90.005 26.2269 90.1836 26.1248 90.3947C25.6198 91.3988 26.2599 92.2795 26.6567 93.0498C26.9528 93.6071 27.2595 94.1501 27.6652 94.6348C27.9599 95.0532 28.3036 95.5851 28.7 95.9635C28.7068 95.9687 28.7068 95.9687 28.7068 95.9687C28.7077 95.9747 28.7078 95.9751 28.7078 95.9751Z" fill="#0FFF80"/>
<path d="M28.7296 95.9993C28.7223 95.9939 28.7213 95.9874 28.7213 95.9874C28.7287 95.9929 28.7296 95.9993 28.7296 95.9993Z" fill="#0FFF80"/>
<path d="M62.0347 79.5667C62.2318 79.8354 62.5203 80.078 62.8681 80.0774C62.9903 80.0911 63.0978 80.0942 63.197 80.0796C64.1879 79.9341 64.2287 78.3016 63.821 77.5449C63.5881 76.9461 63.1995 76.32 62.5909 76.0485C61.9911 75.795 61.3958 76.2683 61.2533 76.8525C61.0057 77.8002 61.2354 78.9435 62.0347 79.5667Z" fill="#0FFF80"/>
<path d="M84.074 70.8192C84.271 71.0879 84.5595 71.3304 84.9073 71.3299C85.0295 71.3435 85.137 71.3466 85.2362 71.332C86.2271 71.1866 86.2679 69.5541 85.8602 68.7974C85.6273 68.1985 85.2387 67.5725 84.6301 67.301C84.0304 67.0475 83.4351 67.5208 83.2925 68.1049C83.0449 69.0527 83.2746 70.1959 84.074 70.8192Z" fill="#0FFF80"/>
<path d="M90.6277 67.8652C90.8247 68.1339 91.1132 68.3764 91.461 68.3759C91.5832 68.3895 91.6907 68.3926 91.7899 68.3781C92.7809 68.2326 92.8216 66.6001 92.4139 65.8434C92.1811 65.2445 91.7924 64.6185 91.1839 64.347C90.5841 64.0935 89.9888 64.5668 89.8462 65.151C89.5986 66.0987 89.8284 67.2419 90.6277 67.8652Z" fill="#0FFF80"/>
<path d="M97.8525 64.971C98.0496 65.2397 98.338 65.4823 98.6859 65.4817C98.8081 65.4954 98.9155 65.4985 99.0148 65.4839C100.006 65.3384 100.046 63.7059 99.6388 62.9492C99.4059 62.3504 99.0172 61.7243 98.4087 61.4528C97.8089 61.1993 97.2136 61.6726 97.071 62.2568C96.8235 63.2045 97.0532 64.3478 97.8525 64.971Z" fill="#0FFF80"/>
<path d="M126.382 52.3154C126.579 52.5841 126.867 52.8266 127.215 52.8261C127.337 52.8397 127.445 52.8428 127.544 52.8283C128.535 52.6828 128.576 51.0503 128.168 50.2936C127.935 49.6947 127.546 49.0687 126.938 48.7972C126.338 48.5437 125.743 49.017 125.6 49.6012C125.353 50.5489 125.582 51.6921 126.382 52.3154Z" fill="#0FFF80"/>
<path d="M132.942 49.3671C133.139 49.6358 133.427 49.8784 133.775 49.8778C133.897 49.8915 134.005 49.8946 134.104 49.88C135.095 49.7345 135.136 48.102 134.728 47.3453C134.495 46.7465 134.107 46.1205 133.498 45.8489C132.898 45.5955 132.303 46.0687 132.16 46.6529C131.913 47.6006 132.143 48.7439 132.942 49.3671Z" fill="#0FFF80"/>
<path d="M140.167 46.4672C140.364 46.7359 140.652 46.9785 141 46.9779C141.122 46.9916 141.23 46.9947 141.329 46.9801C142.32 46.8346 142.361 45.2021 141.953 44.4454C141.72 43.8466 141.332 43.2206 140.723 42.949C140.123 42.6956 139.528 43.1688 139.385 43.753C139.138 44.7007 139.368 45.844 140.167 46.4672Z" fill="#0FFF80"/>
<path d="M107.206 61.0183C107.403 61.287 107.691 61.5295 108.039 61.5289C108.161 61.5426 108.269 61.5457 108.368 61.5311C109.359 61.3857 109.4 59.7532 108.992 58.9965C108.759 58.3976 108.37 57.7716 107.762 57.5001C107.162 57.2466 106.567 57.7199 106.424 58.304C106.177 59.2518 106.406 60.395 107.206 61.0183Z" fill="#0FFF80"/>
<path d="M113.765 58.0701C113.962 58.3388 114.251 58.5814 114.598 58.5808C114.721 58.5945 114.828 58.5976 114.927 58.583C115.918 58.4375 115.959 56.805 115.551 56.0483C115.318 55.4495 114.93 54.8235 114.321 54.5519C113.721 54.2985 113.126 54.7717 112.984 55.3559C112.736 56.3036 112.966 57.4469 113.765 58.0701Z" fill="#0FFF80"/>
<path d="M76.6469 63.7985C76.2108 64.3621 76.8205 65.0311 77.4209 65.0316L77.426 65.0248C78.816 64.802 80.0925 63.9756 81.4188 63.4903C85.0918 61.8891 88.7968 60.378 92.5001 58.8548C102.532 54.74 112.548 50.596 122.511 46.3144C125.71 44.9284 128.909 43.5485 132.157 42.2817C136.986 40.1947 141.799 37.9591 146.969 36.8275C153.967 34.5741 161.575 36.5119 166.936 41.499C167.646 42.0334 168.002 43.2208 168.997 43.2329C169.439 43.2312 169.825 42.8394 169.721 42.3931C169.208 41.1722 168.166 40.2245 167.187 39.3628C162.932 35.8896 157.318 33.8865 151.807 34.2396C143.556 35.0959 136.08 38.8418 128.501 41.914C121.304 44.9299 114.171 48.0695 106.964 51.0614C99.3359 54.1912 91.7183 57.3509 84.0915 60.4931C82.3099 61.2352 80.5598 62.0231 78.785 62.7704C78.0849 63.1262 77.2176 63.2468 76.6469 63.7985Z" fill="#004449"/>
<path d="M132.647 81.101C132.641 81.0636 132.591 81.1091 132.591 81.1091C132.596 81.1465 132.651 81.1319 132.647 81.101Z" fill="#004449"/>
<path d="M109.304 89.6645C110.304 90.4922 112.365 90.1834 113.601 90.0778L113.595 90.0787C117.564 89.5846 119.449 88.6814 121.677 85.2663C123.297 82.8895 124.395 80.2228 125.753 77.6947C127.459 74.5586 128.864 71.2709 130.203 67.9608C131.575 64.7856 132.906 61.5969 134.243 58.4074C134.604 57.4116 133.592 56.7564 132.961 57.6339C132.682 58.0607 132.487 58.5454 132.27 59.0075C131.181 61.4328 130.2 63.8993 129.11 66.3181C127.636 69.8693 126.196 73.4405 124.341 76.8135C123.026 79.2465 121.98 81.8297 120.417 84.1223C119.821 85.0262 119.166 85.9073 118.309 86.5835C117.687 87.0862 116.938 87.4173 116.162 87.601C114.531 87.9924 112.906 88.2564 111.211 88.1699C110.95 88.1135 110.608 88.1509 110.415 87.9515C110.263 87.5182 110.515 87.0317 110.61 86.6003C110.93 85.585 111.31 84.5925 111.656 83.58C112.6 80.8151 113.557 78.0549 114.541 75.3035C115.11 73.5682 115.613 71.8054 116.215 70.078C117.157 67.3892 118.054 64.6889 118.95 61.982C119.132 61.4553 119.276 60.9275 119.44 60.3975C119.706 59.8395 119.683 58.8557 118.898 58.8063C117.821 58.9202 117.831 60.2922 117.511 61.0919C117.315 61.7027 117.113 62.3088 116.917 62.9196C115.696 66.6043 114.376 70.2214 113.262 73.9475C112.221 76.9984 111.126 80.0255 110.097 83.081C109.716 84.2001 109.277 85.3084 108.949 86.4451C108.634 87.4914 108.418 88.8329 109.304 89.6645Z" fill="#004449"/>
<path d="M132.225 59.7039C131.916 59.9264 131.741 60.3316 131.938 60.6882L131.924 60.6776C132.18 61.0893 132.552 61.1672 132.942 61.11C133.375 61.0464 133.828 60.8154 134.205 60.6715C135.396 60.212 136.547 59.6513 137.72 59.1503C141.304 57.5873 144.912 56.1032 148.535 54.6354C150.169 53.9213 151.817 53.2558 153.461 52.5653C153.47 52.545 153.474 52.5257 153.484 52.5054C153.563 52.2721 153.782 52.1642 153.988 52.0581C154.14 51.9786 154.299 51.8987 154.452 51.8192C154.735 51.6764 155.025 51.5456 155.308 51.4028C155.603 51.2582 155.899 51.1195 156.203 50.9929C156.358 50.9319 156.507 50.8663 156.662 50.8053C156.806 50.7526 156.948 50.6814 157.092 50.6287C157.272 50.5641 157.451 50.4938 157.631 50.4293C157.973 50.3032 158.309 50.178 158.65 50.0459C158.812 49.984 158.973 49.9161 159.135 49.8607C159.195 49.8391 159.262 49.8172 159.322 49.7956C159.529 49.5313 159.572 49.2149 159.207 48.9206C158.689 48.5793 158.092 48.9069 157.574 49.0842C156.415 49.5009 155.303 50.0247 154.17 50.4944C152.055 51.3361 149.953 52.2197 147.858 53.1154C143.805 54.7538 139.748 56.4178 135.746 58.1878C134.856 58.5903 133.961 58.9933 133.044 59.3367C132.77 59.4528 132.472 59.5347 132.225 59.7039Z" fill="#004449"/>
<path d="M78.6798 82.5108C78.2505 83.0796 78.733 83.7423 79.3805 83.7171L79.3856 83.7097C79.8934 83.6795 80.3083 83.4037 80.8023 83.2365C82.313 82.6292 83.8241 82.0214 85.3338 81.4077C88.2968 80.138 91.297 78.952 94.2503 77.6584C98.1903 75.98 102.119 74.2647 106.068 72.6038C108.346 71.6247 110.566 70.5904 112.867 69.6395C113.705 69.27 114.55 68.9121 115.378 68.5187C115.768 68.2908 116.259 68.1425 116.539 67.7662C116.797 67.412 116.614 66.9779 116.213 66.8722C115.987 66.7978 115.704 66.8517 115.479 66.9162C114.917 67.0934 114.372 67.3384 113.812 67.5341C111.356 68.5078 108.919 69.5235 106.526 70.627C102.073 72.5197 97.6303 74.4368 93.1796 76.3419C89.0425 78.1001 84.8958 79.8343 80.7257 81.4959C80.2188 81.7033 79.7095 81.8977 79.2086 82.1042C79.0008 82.1978 78.8165 82.3201 78.6798 82.5108Z" fill="#004449"/>
<path d="M38.366 82.0865C38.6342 82.4521 39.0407 82.6834 39.4972 82.6923L39.5138 82.6771C39.6402 82.6774 39.7883 82.6496 39.9014 82.6014C40.3211 82.445 40.4404 81.9211 40.229 81.5536C40.013 81.1996 39.6892 80.9308 39.4398 80.6067C38.5377 79.4928 37.463 78.5373 36.5054 77.4759C34.0067 74.8188 31.3405 72.3131 29.1156 69.4073C28.2847 68.3462 27.4092 67.2856 26.8261 66.0617C26.3528 65.1127 26.4702 63.7478 27.4708 63.1959C28.9665 62.4388 31.7177 63.7494 33.2424 64.2782C37.0199 65.6466 40.6212 67.4524 44.1494 69.3638C46.3448 70.5471 48.5314 71.7572 50.8949 72.574C52.1906 73.0482 53.5193 73.4473 54.8995 73.5927C57.4129 74.0083 59.8303 72.9829 62.0602 71.928C63.1884 71.4272 64.2474 70.7973 65.3133 70.1726C66.5274 69.4819 67.7677 68.8382 68.9979 68.1705C69.314 67.9534 69.7323 67.8288 69.9487 67.4933C70.1324 67.15 69.9022 66.741 69.5711 66.5934C68.8127 66.2493 68.0565 66.7842 67.3717 67.0743C65.9748 67.6844 64.6374 68.3994 63.3188 69.156C62.2496 69.8 61.1126 70.3276 59.9802 70.8419C58.7837 71.3528 57.5743 71.859 56.244 71.9722C52.8994 72.0582 49.1124 70.1913 46.2196 68.6044C42.0051 66.3194 37.734 64.1248 33.2074 62.5183C31.5774 61.9164 29.8944 61.2586 28.1365 61.2573C25.9119 61.2614 24.2863 62.8603 24.5464 65.1246C24.8225 67.0198 26.3342 68.7146 27.4672 70.1996C28.9002 72.0074 30.4002 73.7544 32.0519 75.3717C33.6906 77.029 35.2566 78.7537 36.8953 80.411C37.41 80.9489 37.8744 81.5324 38.366 82.0865Z" fill="#004449"/>
<path d="M26.4563 93.5854C27.0603 94.4771 27.6076 95.4978 28.5345 96.0894L28.5336 96.0829C29.8483 96.6869 31.2621 95.8917 32.4593 95.3425C33.3234 94.9374 34.2226 94.514 35.0654 94.0488C37.2616 92.7205 39.5243 91.5023 41.7367 90.1971C43.8378 89.0407 45.9224 87.8552 48.031 86.7044C48.7165 86.3317 49.3999 85.9469 50.0745 85.5442C50.4525 85.318 50.9363 85.1645 51.1907 84.7857C51.7688 83.7204 50.4566 83.3052 49.6967 83.8596C46.0296 85.9414 42.3117 87.9364 38.6634 90.0598C36.1391 91.4362 33.7456 93.0217 31.0924 94.1638C30.6772 94.3512 30.2579 94.5523 29.7961 94.5946C29.4541 94.3727 29.2262 93.9823 28.9662 93.6724C28.6173 93.1861 28.2974 92.6827 28.0067 92.1623C27.845 91.8319 27.7106 91.4782 27.7575 91.1044C27.7171 90.3068 28.3779 89.8933 28.9749 89.5209C29.8155 88.999 30.7677 88.4607 31.7135 87.9234C35.0106 86.035 38.2846 84.118 41.5807 82.2231C43.4814 81.166 45.3312 80.0215 47.1901 78.8946C47.4974 78.7038 47.8675 78.5104 47.931 78.1214C48.009 77.5281 47.271 77.4086 46.8433 77.5978C45.4763 78.064 44.2337 78.8222 42.984 79.531C40.8018 80.7813 38.6183 82.0252 36.443 83.2811C33.8172 84.8304 31.157 86.3159 28.5242 87.8601C27.6773 88.3386 26.8257 88.8749 26.2397 89.6697C25.8362 90.2415 25.7384 90.958 25.7367 91.6416C25.7635 92.3464 26.0865 93.0007 26.4563 93.5854Z" fill="#004449"/>
<path d="M46.1814 90.2552C48.9022 92.1833 52.0528 92.8085 55.3444 92.623C56.8621 92.5394 58.337 92.1646 59.7954 91.7611C62.6105 91.0383 65.317 89.9139 67.9616 88.7164C68.1186 88.6236 68.4473 88.5377 68.5681 88.3682C69.0945 87.7281 68.3009 86.8386 67.6032 86.8651C67.167 86.8659 66.8041 87.1534 66.4094 87.3061C65.0393 87.9243 63.6505 88.5014 62.2341 89.019C60.9081 89.5487 59.5264 89.9159 58.1442 90.2767C56.8521 90.6053 55.5476 90.8919 54.2137 90.8915C51.77 90.9527 49.3417 90.4302 47.2946 89.0482C46.6401 88.6762 46.0277 88.2475 45.4047 87.8331C45.1449 87.6119 44.5678 87.2539 44.1729 87.4509C43.3499 87.8753 44.1013 88.6503 44.5553 89.0329C45.0749 89.4752 45.6033 89.8908 46.1814 90.2552Z" fill="#004449"/>
<path d="M146.476 37.7364C147.317 41.1174 149.143 44.0189 153.044 43.6358L153.039 43.6431C155.133 43.5695 157.045 42.669 158.919 41.8246C160.682 41.1231 162.36 40.2317 164.116 39.5246C164.905 39.257 165.106 37.9436 164.316 37.5596C163.881 37.3897 163.46 37.7165 163.064 37.8632C161.706 38.436 160.388 39.1104 159.025 39.6901C156.419 40.7685 153.433 42.44 150.613 41.1777C148.927 40.2421 148.377 38.2038 147.793 36.493C147.38 34.7444 145.796 35.8437 146.476 37.7364Z" fill="#004449"/>
<path d="M150.146 52.1585C149.384 52.4411 148.86 53.1825 149.744 53.6978L149.748 53.6784C149.966 53.7855 150.189 53.8032 150.406 53.7713C150.771 53.7177 151.128 53.5201 151.459 53.3639C152.137 53.0683 152.809 52.8178 153.478 52.5106C153.484 52.5097 153.483 52.4972 153.483 52.4972C153.563 52.2639 153.781 52.1564 153.987 52.0502C154.14 51.9707 154.298 51.8903 154.451 51.8108C154.734 51.6679 155.025 51.5371 155.307 51.3942C155.602 51.2495 155.898 51.1112 156.202 50.9845C156.358 50.9235 156.506 50.8579 156.662 50.7968C156.806 50.7441 156.947 50.6729 157.091 50.6201C157.271 50.5555 157.451 50.4852 157.631 50.4206C157.973 50.2945 158.309 50.1688 158.65 50.0367C158.812 49.9748 158.973 49.9072 159.135 49.8517C159.165 49.8412 159.195 49.8242 159.226 49.8196C160.117 49.3851 161.015 48.9556 161.916 48.5387C163.789 47.6878 165.722 46.9362 167.457 45.8209C168.714 45.1237 170.34 43.9112 169.722 42.2745C168.781 40.1543 166.485 38.9348 164.466 37.9659C164.183 37.8051 163.589 37.6768 163.542 38.1331C163.551 38.2836 163.645 38.3586 163.753 38.4502C164.306 38.9952 164.831 39.5632 165.44 40.0497C166.11 40.6157 166.704 41.2623 167.264 41.9394C167.756 42.5821 168.079 43.193 167.325 43.7908C164.977 45.5083 162.141 46.5254 159.514 47.7651C157.333 48.8063 155.277 49.931 153.021 50.8443C152.078 51.318 151.071 51.6492 150.146 52.1585Z" fill="#004449"/>
<path d="M147.938 53.1219C147.172 53.7274 147.77 54.6202 148.628 54.5198L148.634 54.5124C149.062 54.4557 149.382 54.2697 149.82 54.1106C150.65 53.7738 151.481 53.4495 152.31 53.1063C154.942 52.0812 157.439 50.779 159.996 49.5876C161.797 48.7161 163.595 47.8261 165.413 46.9776C166.116 46.6466 166.796 46.2371 167.392 45.7258C167.761 45.3936 168.008 45.0914 168.327 44.6778C168.539 44.4 168.849 44.1396 168.896 43.772C168.921 43.5091 168.548 43.4625 168.402 43.6296C168.247 43.7852 168.067 43.8937 167.882 44.0095C167.001 44.4297 166.229 44.6882 165.324 45.2005C161.615 46.9023 157.915 48.7545 154.217 50.4927C152.562 51.2354 150.875 51.8936 149.198 52.5763C148.86 52.7273 148.268 52.8773 147.938 53.1219Z" fill="#004449"/>
<path d="M125.867 75.022C125.841 75.1018 125.819 75.2126 125.873 75.3249L125.872 75.3189C125.919 75.4196 126.012 75.4503 126.105 75.4367C126.458 75.3466 126.533 74.9053 126.742 74.6468C127.371 73.6685 127.96 72.5886 128.516 71.5386C129.386 69.8286 130.195 68.0899 130.922 66.3061C131.919 63.9446 132.969 61.6007 133.918 59.221C134.216 58.4432 134.559 57.6711 134.863 56.8925C134.984 56.552 135.183 56.2252 135.193 55.8567C135.138 54.6562 133.745 54.9937 133.457 55.8776C131.852 60.0117 130.019 64.0589 128.347 68.165C127.931 69.1309 127.483 70.0953 127.135 71.0894C126.767 72.0359 126.539 73.0313 126.21 73.9909C126.108 74.2908 125.986 74.6631 125.867 75.022Z" fill="#004449"/>
<path d="M85.7134 117.013C86.6716 117.682 87.251 116.319 86.7722 115.509L86.7787 115.508C85.8278 113.673 84.9602 111.8 84.1402 109.908C82.577 106.042 82.2279 101.714 81.5017 97.5983C81.1218 95.1667 80.0987 93.031 80.0064 90.5761C79.9518 89.1597 79.9213 87.7341 79.8917 86.3141C79.9389 82.2119 79.8943 78.085 79.3521 74.0187C78.8174 71.2173 78.2836 64.5163 75.0862 63.6753C71.9199 63.393 71.5727 67.786 71.0634 70.0636C70.5501 72.8353 70.1347 75.6308 69.7897 78.4283C68.9395 83.8382 68.2282 89.3735 67.6128 94.8315C67.0308 99.911 68.523 102.597 70.1476 107.188C71.1659 109.704 71.9874 112.298 73.0709 114.785C73.7227 116.348 74.6179 117.805 75.1495 119.411C75.5456 120.391 76.6855 119.964 76.7128 119.068C76.7449 118.81 76.7395 118.513 76.6503 118.248L76.6748 118.244C79.6863 117.897 82.665 116.935 85.7134 117.013ZM85.6337 116.987C85.6604 116.996 85.6798 116.999 85.7056 117.001L85.7065 117.008L85.6337 116.987Z" fill="#FFA97F"/>
<path d="M77.4239 94.3544C77.4113 95.1348 77.0979 96.1556 77.831 96.7128L77.8199 96.7206C78.872 97.1235 79.045 95.5345 79.0403 94.8072C79.2216 92.0586 79.4993 89.3213 79.7323 86.5779C80.0867 81.0253 81.4822 65.8564 75.739 63.0529C74.4806 62.0602 73.466 63.6519 74.6187 64.5275C75.0998 64.9189 75.6602 65.2038 76.114 65.6246C77.3015 67.1722 77.7263 69.1736 78.0089 71.0691C78.8717 76.0317 78.4211 81.187 78.1091 86.2082C77.8974 88.9231 77.6097 91.6368 77.4239 94.3544Z" fill="#004449"/>
<path d="M110.781 124.434C110.823 121.372 111.06 118.313 110.858 115.257L110.845 115.245C110.783 114.64 110.74 114.015 110.492 113.45C110.436 112.074 108.532 111.059 106.811 111.221C105.969 111.295 104.808 111.24 104.545 112.257C104.383 112.773 104.811 113.322 105.358 113.238C106.434 113.096 107.803 112.908 108.577 113.854C108.265 114.145 107.865 114.278 107.471 114.405C106.699 114.631 105.909 114.753 105.12 114.88C102.819 115.341 100.561 115.285 98.1678 115.392C92.8351 115.604 87.5196 116.028 82.1826 116.152C80.9435 116.17 79.6397 116.279 78.3892 116.324C77.3575 116.363 76.3273 116.302 75.2986 116.272C73.7765 116.148 68.8079 116.743 68.0756 115.368C68.5784 114.898 69.1803 114.541 69.8275 114.327C70.3087 114.184 70.8834 114.267 71.2378 113.836C71.2082 113.869 71.1778 113.895 71.1481 113.928C71.1182 113.955 71.0879 113.975 71.0579 114.002C71.915 113.351 71.4679 112.294 70.3715 112.544C68.9338 112.729 67.396 113.54 66.5666 114.748C66.3633 115.072 66.2742 115.421 66.2784 115.759C65.9869 116.451 65.8741 117.197 65.7921 117.941C65.4749 120.127 65.1634 122.312 64.8337 124.498C63.9327 131.065 63.2528 137.671 62.4093 144.267C61.8844 149.335 61.5234 154.413 60.9982 159.475C60.3008 166.238 59.5344 172.987 58.7122 179.756C58.2054 183.676 57.9373 187.609 57.4556 191.527C57.1415 194.158 56.834 196.782 56.5705 199.417C56.5548 199.731 56.4652 200.199 56.4315 200.659C56.3404 201.089 56.2826 201.569 56.553 201.844C56.587 201.899 56.6272 201.947 56.6796 201.995C56.9334 202.189 57.2417 202.211 57.5738 202.213C58.087 202.206 58.6071 202.205 59.1197 202.186C60.2206 202.155 61.3236 202.169 62.4207 202.064C63.1062 201.991 63.7898 201.888 64.4772 201.854C68.1039 201.728 71.7074 201.39 75.3399 201.251C80.5865 201.076 85.8246 200.85 91.0653 200.687C94.0111 200.595 96.9438 200.372 99.8896 200.281C101.596 200.195 103.301 200.103 105.003 199.936C105.283 199.897 105.797 199.928 106.114 199.736C106.574 199.669 106.986 199.134 106.981 198.664C106.988 198.545 106.995 198.431 107.002 198.318C107.063 197.149 107.174 195.99 107.26 194.819C107.372 193.308 107.391 191.796 107.517 190.291C108.181 181.855 108.343 173.388 108.975 164.947C109.269 159.771 109.613 154.599 109.769 149.418C109.846 146.053 110.124 142.69 110.219 139.324C110.348 134.358 110.715 129.404 110.781 124.434Z" fill="#0FFF80"/>
<path d="M110.122 117.782C110.144 117.843 110.192 117.917 110.267 117.919L110.261 117.919C110.591 117.89 110.547 116.369 110.594 116.053C110.711 115.137 110.74 114.214 110.545 113.308C110.458 112.817 109.886 111.911 109.299 112.073C108.923 112.192 108.814 112.661 108.894 113.002C108.93 113.213 109.154 113.434 109.261 113.573C109.745 114.364 109.707 115.357 109.839 116.247C109.896 116.765 109.947 117.283 110.122 117.782Z" fill="#0FFF80"/>
<path d="M72.9898 128.603C75.5434 128.695 77.3433 125.964 76.9429 123.583C76.776 121.616 75.4162 120.343 73.4386 120.373C72.3637 120.546 71.3648 121.236 70.7056 122.09C68.8981 124.282 69.909 128.369 72.9898 128.603Z" fill="#FFFBED"/>
<path d="M90.216 116.651C92.7031 116.552 95.1937 116.383 97.6811 116.289L97.6998 116.288C98.9695 116.262 100.244 116.199 101.515 116.078C102.582 116 103.749 115.903 104.946 115.674C105.876 115.49 106.791 115.25 107.696 114.954C108.139 114.788 108.634 114.656 108.999 114.331C109.392 113.923 109.117 113.429 108.671 113.27C108.313 113.119 107.938 113.263 107.592 113.362C107.339 113.431 107.079 113.5 106.82 113.57C104.935 114.084 103 114.337 101.059 114.453C99.3949 114.618 97.5797 114.628 95.8868 114.713C91.6095 114.959 87.34 115.11 83.0599 115.168C78.7934 115.257 74.5164 115.377 70.2666 114.921C69.8514 114.879 69.4423 114.837 69.0326 114.782C68.6663 114.719 68.2654 114.72 67.9642 114.961C67.2356 115.542 67.9406 116.371 68.6685 116.404C72.205 116.878 75.7761 116.912 79.3386 116.896C82.9609 116.827 86.5897 116.764 90.216 116.651Z" fill="#004449"/>
<path d="M55.8446 199.691C55.8131 200.194 55.6667 200.772 56.0627 201.173L56.0756 201.178C56.3732 201.49 56.87 201.402 57.1303 201.094C57.3565 200.851 57.4597 200.532 57.4873 200.204C57.5362 199.675 57.5722 199.14 57.6084 198.611C57.9666 194.348 58.4439 190.216 58.956 185.901C59.9234 177.762 60.6088 169.619 61.5318 161.47C62.3159 155.065 62.9551 148.649 63.7194 142.22C64.4824 136.273 65.4409 130.349 65.8451 124.365C65.9245 123.314 66.042 122.267 66.0521 121.213C66.0454 120.956 66.0761 120.691 65.9947 120.444C65.8891 120.086 65.4892 119.861 65.1468 120.029C64.729 120.194 64.5678 120.729 64.5515 121.162C64.4545 121.983 64.3823 122.801 64.2979 123.621C64.0502 126.079 63.8366 128.705 63.5233 131.223C63.0606 135.273 62.3584 139.297 61.9146 143.351C61.4377 147.238 61.0786 151.107 60.6207 154.999C60.1466 158.943 59.6589 162.874 59.2852 166.826C58.519 174.597 57.6913 182.527 56.7629 190.313C56.5125 192.96 56.1514 195.662 55.9454 198.319C55.9118 198.778 55.8782 199.232 55.8446 199.691Z" fill="#004449"/>
<path d="M106.134 196.233C106.209 197.233 105.534 198.903 106.47 199.578L106.482 199.577C107.665 199.913 107.743 198.341 107.734 197.52C107.879 195.142 108.093 192.773 108.25 190.395C108.51 186.174 108.846 181.961 109.094 177.741C109.768 167.622 110.386 157.494 110.652 147.359C110.688 145.187 110.888 143.026 111.024 140.862C110.951 140.006 111.366 138.907 110.89 138.159C109.093 137.19 109.524 140.699 109.331 141.724C109.109 144.2 108.951 146.679 108.93 149.164C108.896 153.518 108.492 157.852 108.307 162.202C107.977 170.923 107.269 179.62 106.7 188.328C106.555 190.963 106.322 193.596 106.134 196.233Z" fill="#004449"/>
<path d="M72.4562 123.795C72.1759 124.455 72.5972 125.368 73.3302 125.501L73.3305 125.507C74.9306 125.822 75.4995 123.028 73.8342 122.791C73.1919 122.717 72.6723 123.232 72.4562 123.795Z" fill="#004449"/>
</g>
</g>
<defs>
<clipPath id="clip0_1_91">
<rect width="187" height="221" fill="white"/>
</clipPath>
</defs>
</svg>
