<svg width="48" height="48" viewBox="0 0 48 48" fill="none" xmlns="http://www.w3.org/2000/svg">
<rect width="47.9998" height="47.9998" rx="23.9999" fill="#FBF4F2"/>
<g clip-path="url(#clip0_125_596)">
<path d="M32.6516 13.9854C32.6516 13.9854 34.9827 13.0764 34.7885 15.284C34.7237 16.193 34.1409 19.3745 33.6877 22.8157L32.1335 33.0095C32.1335 33.0095 32.0041 34.5028 30.8384 34.7626C29.6728 35.0223 27.9245 33.8536 27.6007 33.5938C27.3417 33.3991 22.7441 30.4773 21.1252 29.0489C20.6719 28.6593 20.1539 27.8801 21.1899 26.9711L27.9892 20.4783C28.7663 19.6992 29.5433 17.8812 26.3056 20.0887L17.2399 26.257C17.2399 26.257 16.2038 26.9062 14.2612 26.3219L10.0521 25.0233C10.0521 25.0233 8.49803 24.0494 11.153 23.0754C17.6285 20.0238 25.5933 16.9072 32.6516 13.9854Z" fill="#213050"/>
</g>
<defs>
<clipPath id="clip0_125_596">
<rect width="28.7999" height="28.7999" fill="white" transform="translate(9.6001 9.6001)"/>
</clipPath>
</defs>
</svg>
