<svg width="48" height="48" viewBox="0 0 48 48" fill="none" xmlns="http://www.w3.org/2000/svg">
<rect width="47.9998" height="47.9998" rx="23.9999" fill="#FBF4F2"/>
<path d="M32.46 15.4922C31.3598 14.3809 30.0494 13.4998 28.6052 12.9003C27.1609 12.3007 25.6117 11.9947 24.048 12.0002C17.496 12.0002 12.1561 17.3402 12.1561 23.8921C12.1561 25.9921 12.7081 28.0321 13.7401 29.8321L12.0601 36.0001L18.36 34.3441C20.1 35.2921 22.056 35.7961 24.048 35.7961C30.6 35.7961 35.94 30.4561 35.94 23.9041C35.94 20.7242 34.704 17.7362 32.46 15.4922ZM24.048 33.7801C22.272 33.7801 20.532 33.3001 19.008 32.4001L18.648 32.1841L14.904 33.1681L15.9 29.5201L15.66 29.1481C14.6733 27.5725 14.1494 25.7512 14.148 23.8921C14.148 18.4442 18.588 14.0042 24.036 14.0042C26.676 14.0042 29.16 15.0362 31.02 16.9082C31.941 17.8249 32.6708 18.9154 33.1672 20.1163C33.6637 21.3172 33.9168 22.6047 33.912 23.9041C33.936 29.3521 29.496 33.7801 24.048 33.7801ZM29.472 26.3881C29.172 26.2441 27.708 25.5241 27.444 25.4161C27.168 25.3201 26.976 25.2721 26.772 25.5601C26.568 25.8601 26.004 26.5321 25.836 26.7241C25.668 26.9281 25.488 26.9521 25.188 26.7961C24.888 26.6521 23.928 26.3281 22.8 25.3201C21.912 24.5281 21.324 23.5561 21.144 23.2561C20.976 22.9561 21.12 22.8001 21.276 22.6441C21.408 22.5121 21.576 22.2961 21.72 22.1281C21.864 21.9601 21.924 21.8281 22.02 21.6362C22.116 21.4322 22.068 21.2642 21.996 21.1202C21.924 20.9762 21.324 19.5122 21.084 18.9122C20.844 18.3362 20.592 18.4082 20.412 18.3962H19.836C19.632 18.3962 19.32 18.4682 19.044 18.7682C18.78 19.0682 18.012 19.7882 18.012 21.2522C18.012 22.7161 19.08 24.1321 19.224 24.3241C19.368 24.5281 21.324 27.5281 24.3 28.8121C25.008 29.1241 25.56 29.3041 25.992 29.4361C26.7 29.6641 27.348 29.6281 27.864 29.5561C28.44 29.4721 29.628 28.8361 29.868 28.1401C30.12 27.4441 30.12 26.8561 30.036 26.7241C29.952 26.5921 29.772 26.5321 29.472 26.3881Z" fill="#213050"/>
</svg>
